<svg width="82" height="82" viewBox="0 0 82 82" fill="none" xmlns="http://www.w3.org/2000/svg">
<g filter="url(#filter0_i_446_31)">
<path d="M17.0684 17.0684C22.2542 11.8826 26.6046 8.09165 30.5188 5.60089C34.4134 3.12263 37.7698 2 41 2C44.2302 2 47.5866 3.12263 51.4812 5.60089C55.3954 8.09165 59.7458 11.8826 64.9316 17.0684C70.1174 22.2542 73.9084 26.6046 76.3991 30.5188C78.8774 34.4134 80 37.7698 80 41C80 44.2302 78.8774 47.5866 76.3991 51.4812C73.9084 55.3954 70.1174 59.7458 64.9316 64.9316C59.7458 70.1174 55.3954 73.9084 51.4812 76.3991C47.5866 78.8774 44.2302 80 41 80C37.7698 80 34.4134 78.8774 30.5188 76.3991C26.6046 73.9084 22.2542 70.1174 17.0684 64.9316C11.8826 59.7458 8.09165 55.3954 5.60089 51.4812C3.12263 47.5866 2 44.2302 2 41C2 37.7698 3.12263 34.4134 5.60089 30.5188C8.09165 26.6046 11.8826 22.2542 17.0684 17.0684Z" stroke="#B69752" stroke-width="4"/>
</g>
<defs>
<filter id="filter0_i_446_31" x="0" y="0" width="82" height="90" filterUnits="userSpaceOnUse" color-interpolation-filters="sRGB">
<feFlood flood-opacity="0" result="BackgroundImageFix"/>
<feBlend mode="normal" in="SourceGraphic" in2="BackgroundImageFix" result="shape"/>
<feColorMatrix in="SourceAlpha" type="matrix" values="0 0 0 0 0 0 0 0 0 0 0 0 0 0 0 0 0 0 127 0" result="hardAlpha"/>
<feOffset dy="8"/>
<feGaussianBlur stdDeviation="6"/>
<feComposite in2="hardAlpha" operator="arithmetic" k2="-1" k3="1"/>
<feColorMatrix type="matrix" values="0 0 0 0 0 0 0 0 0 0 0 0 0 0 0 0 0 0 0.12 0"/>
<feBlend mode="normal" in2="shape" result="effect1_innerShadow_446_31"/>
</filter>
</defs>
</svg>
