<svg width="139" height="17" viewBox="0 0 139 17" fill="none" xmlns="http://www.w3.org/2000/svg">
<g filter="url(#filter0_i_4461_25551)">
<path d="M5.8688 8.284V6.52H9.37881V12.784C9.05481 12.868 8.39481 12.958 7.39881 13.054C6.41481 13.15 5.70081 13.198 5.2568 13.198C3.3848 13.198 2.0948 12.682 1.3868 11.65C0.678805 10.618 0.324805 9.004 0.324805 6.808C0.324805 4.6 0.684805 2.992 1.4048 1.984C2.1368 0.975999 3.3968 0.471999 5.18481 0.471999C6.24081 0.471999 7.4288 0.591999 8.7488 0.831999L9.37881 0.957999L9.30681 2.542C7.85481 2.35 6.55281 2.254 5.4008 2.254C4.2488 2.254 3.4568 2.578 3.0248 3.226C2.6048 3.874 2.3948 5.074 2.3948 6.826C2.3948 8.578 2.5928 9.79 2.9888 10.462C3.3968 11.122 4.2128 11.452 5.43681 11.452C6.3128 11.452 6.9668 11.398 7.39881 11.29V8.284H5.8688ZM12.1379 4.972C12.7619 4.192 13.7939 3.802 15.2339 3.802C16.6739 3.802 17.6999 4.192 18.3119 4.972C18.9359 5.752 19.2479 6.922 19.2479 8.482C19.2479 10.042 18.9479 11.218 18.3479 12.01C17.7479 12.802 16.7099 13.198 15.2339 13.198C13.7579 13.198 12.7199 12.802 12.1199 12.01C11.5199 11.218 11.2199 10.042 11.2199 8.482C11.2199 6.922 11.5259 5.752 12.1379 4.972ZM13.6139 10.822C13.8899 11.302 14.4299 11.542 15.2339 11.542C16.0379 11.542 16.5779 11.302 16.8539 10.822C17.1299 10.342 17.2679 9.556 17.2679 8.464C17.2679 7.372 17.1179 6.598 16.8179 6.142C16.5299 5.686 16.0019 5.458 15.2339 5.458C14.4659 5.458 13.9319 5.686 13.6319 6.142C13.3439 6.598 13.1999 7.372 13.1999 8.464C13.1999 9.556 13.3379 10.342 13.6139 10.822ZM29.9939 5.674H27.5099V9.634C27.5099 10.366 27.5639 10.852 27.6719 11.092C27.7799 11.332 28.0559 11.452 28.4999 11.452L29.9759 11.398L30.0659 12.964C29.2619 13.12 28.6499 13.198 28.2299 13.198C27.2099 13.198 26.5079 12.964 26.1239 12.496C25.7519 12.028 25.5659 11.146 25.5659 9.85V5.674H24.4139V4H25.5659V1.39H27.5099V4H29.9939V5.674ZM32.089 4.972C32.713 4.192 33.745 3.802 35.185 3.802C36.625 3.802 37.651 4.192 38.263 4.972C38.887 5.752 39.199 6.922 39.199 8.482C39.199 10.042 38.899 11.218 38.299 12.01C37.699 12.802 36.661 13.198 35.185 13.198C33.709 13.198 32.671 12.802 32.071 12.01C31.471 11.218 31.171 10.042 31.171 8.482C31.171 6.922 31.477 5.752 32.089 4.972ZM33.565 10.822C33.841 11.302 34.381 11.542 35.185 11.542C35.989 11.542 36.529 11.302 36.805 10.822C37.081 10.342 37.219 9.556 37.219 8.464C37.219 7.372 37.069 6.598 36.769 6.142C36.481 5.686 35.953 5.458 35.185 5.458C34.417 5.458 33.883 5.686 33.583 6.142C33.295 6.598 33.151 7.372 33.151 8.464C33.151 9.556 33.289 10.342 33.565 10.822ZM45.337 13V0.669999H48.811L51.565 10.3L54.319 0.669999H57.811V13H55.795V2.884H55.525L52.609 12.496H50.521L47.605 2.884H47.335V13H45.337ZM67.056 6.772V10.876C67.068 11.14 67.134 11.338 67.254 11.47C67.386 11.59 67.584 11.668 67.848 11.704L67.794 13.198C66.762 13.198 65.964 12.976 65.4 12.532C64.44 12.976 63.474 13.198 62.502 13.198C60.714 13.198 59.82 12.244 59.82 10.336C59.82 9.424 60.06 8.764 60.54 8.356C61.032 7.948 61.782 7.702 62.79 7.618L65.112 7.42V6.772C65.112 6.292 65.004 5.956 64.788 5.764C64.584 5.572 64.278 5.476 63.87 5.476C63.102 5.476 62.142 5.524 60.99 5.62L60.414 5.656L60.342 4.27C61.65 3.958 62.85 3.802 63.942 3.802C65.046 3.802 65.838 4.042 66.318 4.522C66.81 4.99 67.056 5.74 67.056 6.772ZM63.024 9.004C62.196 9.076 61.782 9.526 61.782 10.354C61.782 11.182 62.148 11.596 62.88 11.596C63.48 11.596 64.116 11.5 64.788 11.308L65.112 11.2V8.806L63.024 9.004ZM69.5191 13V4H71.4631V5.08C72.4831 4.42 73.5031 3.994 74.5231 3.802V5.764C73.4911 5.968 72.6091 6.232 71.8771 6.556L71.4811 6.718V13H69.5191ZM77.985 13H76.023V0.256H77.985V7.618L79.101 7.51L81.225 4H83.421L80.829 8.212L83.565 13H81.351L79.155 9.202L77.985 9.328V13ZM91.22 11.38L91.724 11.326L91.76 12.784C90.392 13.06 89.18 13.198 88.124 13.198C86.792 13.198 85.832 12.832 85.244 12.1C84.668 11.368 84.38 10.198 84.38 8.59C84.38 5.398 85.682 3.802 88.286 3.802C90.806 3.802 92.066 5.176 92.066 7.924L91.94 9.328H86.36C86.372 10.072 86.534 10.618 86.846 10.966C87.158 11.314 87.74 11.488 88.592 11.488C89.444 11.488 90.32 11.452 91.22 11.38ZM90.14 7.816C90.14 6.928 89.996 6.31 89.708 5.962C89.432 5.602 88.958 5.422 88.286 5.422C87.614 5.422 87.122 5.608 86.81 5.98C86.51 6.352 86.354 6.964 86.342 7.816H90.14ZM98.7946 5.674H96.3106V9.634C96.3106 10.366 96.3646 10.852 96.4726 11.092C96.5806 11.332 96.8566 11.452 97.3006 11.452L98.7766 11.398L98.8666 12.964C98.0626 13.12 97.4506 13.198 97.0306 13.198C96.0106 13.198 95.3086 12.964 94.9246 12.496C94.5526 12.028 94.3666 11.146 94.3666 9.85V5.674H93.2146V4H94.3666V1.39H96.3106V4H98.7946V5.674ZM100.404 16.87V4H102.348V4.558C103.176 4.054 103.95 3.802 104.67 3.802C105.858 3.802 106.728 4.168 107.28 4.9C107.832 5.62 108.108 6.838 108.108 8.554C108.108 10.258 107.79 11.458 107.154 12.154C106.53 12.85 105.504 13.198 104.076 13.198C103.584 13.198 103.014 13.144 102.366 13.036V16.87H100.404ZM104.328 5.548C103.764 5.548 103.2 5.674 102.636 5.926L102.366 6.052V11.362C102.846 11.458 103.374 11.506 103.95 11.506C104.766 11.506 105.33 11.272 105.642 10.804C105.954 10.336 106.11 9.538 106.11 8.41C106.11 6.502 105.516 5.548 104.328 5.548ZM110.18 13V0.256H112.142V13H110.18ZM121.285 6.772V10.876C121.297 11.14 121.363 11.338 121.483 11.47C121.615 11.59 121.813 11.668 122.077 11.704L122.023 13.198C120.991 13.198 120.193 12.976 119.629 12.532C118.669 12.976 117.703 13.198 116.731 13.198C114.943 13.198 114.049 12.244 114.049 10.336C114.049 9.424 114.289 8.764 114.769 8.356C115.261 7.948 116.011 7.702 117.019 7.618L119.341 7.42V6.772C119.341 6.292 119.233 5.956 119.017 5.764C118.813 5.572 118.507 5.476 118.099 5.476C117.331 5.476 116.371 5.524 115.219 5.62L114.643 5.656L114.571 4.27C115.879 3.958 117.079 3.802 118.171 3.802C119.275 3.802 120.067 4.042 120.547 4.522C121.039 4.99 121.285 5.74 121.285 6.772ZM117.253 9.004C116.425 9.076 116.011 9.526 116.011 10.354C116.011 11.182 116.377 11.596 117.109 11.596C117.709 11.596 118.345 11.5 119.017 11.308L119.341 11.2V8.806L117.253 9.004ZM127.114 3.802C127.75 3.802 128.5 3.886 129.364 4.054L129.814 4.144L129.742 5.692C128.794 5.596 128.092 5.548 127.636 5.548C126.724 5.548 126.112 5.752 125.8 6.16C125.488 6.568 125.332 7.336 125.332 8.464C125.332 9.592 125.482 10.372 125.782 10.804C126.082 11.236 126.706 11.452 127.654 11.452L129.76 11.308L129.814 12.874C128.602 13.09 127.69 13.198 127.078 13.198C125.71 13.198 124.744 12.832 124.18 12.1C123.628 11.356 123.352 10.144 123.352 8.464C123.352 6.784 123.646 5.59 124.234 4.882C124.822 4.162 125.782 3.802 127.114 3.802ZM138.031 11.38L138.535 11.326L138.571 12.784C137.203 13.06 135.991 13.198 134.935 13.198C133.603 13.198 132.643 12.832 132.055 12.1C131.479 11.368 131.191 10.198 131.191 8.59C131.191 5.398 132.493 3.802 135.097 3.802C137.617 3.802 138.877 5.176 138.877 7.924L138.751 9.328H133.171C133.183 10.072 133.345 10.618 133.657 10.966C133.969 11.314 134.551 11.488 135.403 11.488C136.255 11.488 137.131 11.452 138.031 11.38ZM136.951 7.816C136.951 6.928 136.807 6.31 136.519 5.962C136.243 5.602 135.769 5.422 135.097 5.422C134.425 5.422 133.933 5.608 133.621 5.98C133.321 6.352 133.165 6.964 133.153 7.816H136.951Z" fill="#F5EDDE"/>
</g>
<defs>
<filter id="filter0_i_4461_25551" x="0.324219" y="0.256012" width="139.053" height="17.114" filterUnits="userSpaceOnUse" color-interpolation-filters="sRGB">
<feFlood flood-opacity="0" result="BackgroundImageFix"/>
<feBlend mode="normal" in="SourceGraphic" in2="BackgroundImageFix" result="shape"/>
<feColorMatrix in="SourceAlpha" type="matrix" values="0 0 0 0 0 0 0 0 0 0 0 0 0 0 0 0 0 0 127 0" result="hardAlpha"/>
<feOffset dx="0.5" dy="0.5"/>
<feGaussianBlur stdDeviation="0.5"/>
<feComposite in2="hardAlpha" operator="arithmetic" k2="-1" k3="1"/>
<feColorMatrix type="matrix" values="0 0 0 0 0.175 0 0 0 0 0.0240625 0 0 0 0 0.0240625 0 0 0 0.84 0"/>
<feBlend mode="normal" in2="shape" result="effect1_innerShadow_4461_25551"/>
</filter>
</defs>
</svg>
