<svg width="176" height="80" viewBox="0 0 176 80" fill="none" xmlns="http://www.w3.org/2000/svg">
<g filter="url(#filter0_dii_4534_25572)">
<path d="M25.538 47C25.678 47 25.808 46.86 25.928 46.58C26.068 46.3 26.138 45.84 26.138 45.2V30.8C26.138 30.16 26.068 29.71 25.928 29.45C25.788 29.17 25.648 29.02 25.508 29H35.348C37.168 29 38.598 29.25 39.638 29.75C40.698 30.23 41.448 30.92 41.888 31.82C42.328 32.7 42.548 33.73 42.548 34.91C42.548 36.15 42.318 37.23 41.858 38.15C41.418 39.05 40.668 39.75 39.608 40.25C38.568 40.73 37.148 40.97 35.348 40.97H29.498V45.2C29.498 45.84 29.568 46.3 29.708 46.58C29.848 46.86 29.988 47 30.128 47H25.538ZM30.728 38.6H34.718C36.018 38.6 36.988 38.44 37.628 38.12C38.268 37.8 38.688 37.36 38.888 36.8C39.108 36.24 39.218 35.61 39.218 34.91C39.218 34.17 39.088 33.54 38.828 33.02C38.568 32.5 38.108 32.11 37.448 31.85C36.808 31.57 35.898 31.43 34.718 31.43H30.728C30.108 31.43 29.748 31.47 29.648 31.55C29.548 31.61 29.498 31.84 29.498 32.24V37.76C29.498 38.16 29.548 38.4 29.648 38.48C29.748 38.56 30.108 38.6 30.728 38.6ZM44.9806 47C45.1206 47 45.2506 46.86 45.3706 46.58C45.5106 46.3 45.5806 45.84 45.5806 45.2V35.06C45.5806 34.42 45.5106 33.97 45.3706 33.71C45.2506 33.43 45.1206 33.28 44.9806 33.26C45.8606 33.26 46.6206 33.2 47.2606 33.08C47.9206 32.94 48.3806 32.8 48.6406 32.66V34.16L48.5806 34.67L48.6406 34.73C48.9406 34.33 49.3006 33.98 49.7206 33.68C50.1606 33.36 50.6606 33.11 51.2206 32.93C51.7806 32.75 52.4206 32.66 53.1406 32.66C54.0806 32.66 54.8906 32.8 55.5706 33.08C56.2706 33.34 56.7706 33.61 57.0706 33.89L56.4706 36.41V37.31C56.2106 36.99 55.8306 36.66 55.3306 36.32C54.8506 35.96 54.3006 35.66 53.6806 35.42C53.0606 35.18 52.4006 35.06 51.7006 35.06C50.9006 35.06 50.1906 35.38 49.5706 36.02C48.9506 36.66 48.6406 37.72 48.6406 39.2V45.2C48.6406 45.84 48.7006 46.3 48.8206 46.58C48.9606 46.86 49.1006 47 49.2406 47H44.9806ZM65.5449 47.3C63.5449 47.3 61.9749 46.98 60.8349 46.34C59.7149 45.7 58.9249 44.83 58.4649 43.73C58.0249 42.63 57.8049 41.39 57.8049 40.01C57.8049 38.61 58.0349 37.36 58.4949 36.26C58.9749 35.16 59.7749 34.29 60.8949 33.65C62.0149 32.99 63.5649 32.66 65.5449 32.66C67.5249 32.66 69.0749 32.99 70.1949 33.65C71.3149 34.29 72.1049 35.16 72.5649 36.26C73.0449 37.36 73.2849 38.61 73.2849 40.01C73.2849 41.39 73.0549 42.63 72.5949 43.73C72.1549 44.83 71.3749 45.7 70.2549 46.34C69.1349 46.98 67.5649 47.3 65.5449 47.3ZM65.5449 45.17C66.7849 45.17 67.7449 44.97 68.4249 44.57C69.1049 44.17 69.5749 43.59 69.8349 42.83C70.0949 42.05 70.2249 41.11 70.2249 40.01C70.2249 38.91 70.0849 37.97 69.8049 37.19C69.5449 36.41 69.0749 35.81 68.3949 35.39C67.7349 34.97 66.7849 34.76 65.5449 34.76C64.3249 34.76 63.3749 34.98 62.6949 35.42C62.0149 35.84 61.5349 36.45 61.2549 37.25C60.9949 38.03 60.8649 38.96 60.8649 40.04C60.8649 41.1 60.9949 42.02 61.2549 42.8C61.5149 43.56 61.9849 44.15 62.6649 44.57C63.3449 44.97 64.3049 45.17 65.5449 45.17ZM75.833 47C75.973 47 76.103 46.86 76.223 46.58C76.363 46.3 76.433 45.84 76.433 45.2V28.1C76.433 27.46 76.363 27.01 76.223 26.75C76.103 26.47 75.973 26.32 75.833 26.3C76.713 26.3 77.473 26.24 78.113 26.12C78.773 25.98 79.233 25.84 79.493 25.7V45.2C79.493 45.84 79.553 46.3 79.673 46.58C79.813 46.86 79.953 47 80.093 47H75.833ZM90.3886 47.3C88.3886 47.3 86.8186 46.98 85.6786 46.34C84.5586 45.7 83.7686 44.83 83.3086 43.73C82.8686 42.63 82.6486 41.39 82.6486 40.01C82.6486 38.61 82.8786 37.36 83.3386 36.26C83.8186 35.16 84.6186 34.29 85.7386 33.65C86.8586 32.99 88.4086 32.66 90.3886 32.66C92.3686 32.66 93.9186 32.99 95.0386 33.65C96.1586 34.29 96.9486 35.16 97.4086 36.26C97.8886 37.36 98.1286 38.61 98.1286 40.01C98.1286 41.39 97.8986 42.63 97.4386 43.73C96.9986 44.83 96.2186 45.7 95.0986 46.34C93.9786 46.98 92.4086 47.3 90.3886 47.3ZM90.3886 45.17C91.6286 45.17 92.5886 44.97 93.2686 44.57C93.9486 44.17 94.4186 43.59 94.6786 42.83C94.9386 42.05 95.0686 41.11 95.0686 40.01C95.0686 38.91 94.9286 37.97 94.6486 37.19C94.3886 36.41 93.9186 35.81 93.2386 35.39C92.5786 34.97 91.6286 34.76 90.3886 34.76C89.1686 34.76 88.2186 34.98 87.5386 35.42C86.8586 35.84 86.3786 36.45 86.0986 37.25C85.8386 38.03 85.7086 38.96 85.7086 40.04C85.7086 41.1 85.8386 42.02 86.0986 42.8C86.3586 43.56 86.8286 44.15 87.5086 44.57C88.1886 44.97 89.1486 45.17 90.3886 45.17ZM107.877 54.32C106.717 54.32 105.647 54.24 104.667 54.08C103.707 53.92 102.867 53.72 102.147 53.48C101.447 53.26 100.907 53.04 100.527 52.82L101.127 50.12V49.25C101.407 49.67 101.847 50.11 102.447 50.57C103.047 51.03 103.797 51.42 104.697 51.74C105.597 52.06 106.617 52.22 107.757 52.22C109.097 52.22 110.087 52 110.727 51.56C111.387 51.12 111.817 50.51 112.017 49.73C112.237 48.95 112.347 48.06 112.347 47.06V45.95L112.407 45.41L112.347 45.35C112.087 45.69 111.727 46.01 111.267 46.31C110.807 46.61 110.257 46.85 109.617 47.03C108.977 47.21 108.257 47.3 107.457 47.3C105.557 47.3 104.077 46.98 103.017 46.34C101.977 45.7 101.247 44.83 100.827 43.73C100.427 42.63 100.227 41.39 100.227 40.01C100.227 38.61 100.427 37.36 100.827 36.26C101.247 35.16 101.977 34.29 103.017 33.65C104.077 32.99 105.557 32.66 107.457 32.66C108.257 32.66 108.967 32.74 109.587 32.9C110.207 33.04 110.747 33.24 111.207 33.5C111.667 33.74 112.047 34.03 112.347 34.37L112.407 34.34L112.347 33.77V32.96H116.007C115.867 32.98 115.727 33.13 115.587 33.41C115.467 33.69 115.407 34.16 115.407 34.82V46.31C115.407 49.21 114.787 51.27 113.547 52.49C112.327 53.71 110.437 54.32 107.877 54.32ZM107.667 45.17C108.907 45.17 109.867 44.98 110.547 44.6C111.227 44.2 111.697 43.62 111.957 42.86C112.217 42.08 112.347 41.13 112.347 40.01C112.347 38.91 112.207 37.97 111.927 37.19C111.667 36.41 111.197 35.81 110.517 35.39C109.857 34.97 108.907 34.76 107.667 34.76C106.547 34.76 105.667 34.98 105.027 35.42C104.387 35.84 103.927 36.45 103.647 37.25C103.387 38.03 103.257 38.96 103.257 40.04C103.257 41.1 103.387 42.02 103.647 42.8C103.907 43.56 104.357 44.15 104.997 44.57C105.657 44.97 106.547 45.17 107.667 45.17ZM125.257 47.3C124.097 47.3 123.077 47.1 122.197 46.7C121.337 46.28 120.667 45.57 120.187 44.57C119.727 43.55 119.497 42.14 119.497 40.34V34.76C119.497 34.12 119.427 33.66 119.287 33.38C119.167 33.1 119.037 32.96 118.897 32.96H123.187C123.047 32.96 122.897 33.1 122.737 33.38C122.597 33.66 122.527 34.12 122.527 34.76V40.76C122.527 42.46 122.827 43.62 123.427 44.24C124.027 44.86 124.817 45.17 125.797 45.17C126.777 45.17 127.627 44.93 128.347 44.45C129.067 43.97 129.627 43.31 130.027 42.47C130.447 41.63 130.657 40.68 130.657 39.62V34.76C130.657 34.12 130.587 33.67 130.447 33.41C130.327 33.13 130.197 32.98 130.057 32.96H133.717V45.2C133.717 45.84 133.777 46.3 133.897 46.58C134.037 46.86 134.177 47 134.317 47H130.657V45.2L130.717 44.6L130.657 44.54C130.537 44.78 130.337 45.06 130.057 45.38C129.777 45.68 129.407 45.98 128.947 46.28C128.507 46.58 127.977 46.82 127.357 47C126.737 47.2 126.037 47.3 125.257 47.3ZM144.415 47.3C142.835 47.3 141.535 47.12 140.515 46.76C139.495 46.38 138.695 45.86 138.115 45.2C137.535 44.54 137.125 43.77 136.885 42.89C136.665 42.01 136.555 41.05 136.555 40.01C136.555 37.75 137.195 35.96 138.475 34.64C139.775 33.32 141.695 32.66 144.235 32.66C145.715 32.66 146.905 32.86 147.805 33.26C148.725 33.66 149.415 34.19 149.875 34.85C150.355 35.51 150.675 36.23 150.835 37.01C151.015 37.77 151.105 38.52 151.105 39.26V40.67C151.105 40.61 150.825 40.55 150.265 40.49C149.725 40.41 148.805 40.37 147.505 40.37H139.615C139.615 41.85 140.055 43.02 140.935 43.88C141.815 44.74 143.125 45.17 144.865 45.17C146.365 45.17 147.595 44.99 148.555 44.63C149.535 44.25 150.185 43.88 150.505 43.52V44.12L150.805 46.1C150.365 46.36 149.585 46.63 148.465 46.91C147.365 47.17 146.015 47.3 144.415 47.3ZM140.815 38.39H148.105C148.105 37.87 147.995 37.33 147.775 36.77C147.555 36.21 147.165 35.74 146.605 35.36C146.045 34.96 145.255 34.76 144.235 34.76C143.375 34.76 142.625 34.91 141.985 35.21C141.345 35.49 140.845 35.86 140.485 36.32C140.145 36.78 139.975 37.27 139.975 37.79C139.975 37.99 140.035 38.14 140.155 38.24C140.275 38.34 140.495 38.39 140.815 38.39Z" fill="url(#paint0_linear_4534_25572)"/>
</g>
<defs>
<filter id="filter0_dii_4534_25572" x="0.621529" y="0.813715" width="175.37" height="78.3926" filterUnits="userSpaceOnUse" color-interpolation-filters="sRGB">
<feFlood flood-opacity="0" result="BackgroundImageFix"/>
<feColorMatrix in="SourceAlpha" type="matrix" values="0 0 0 0 0 0 0 0 0 0 0 0 0 0 0 0 0 0 127 0" result="hardAlpha"/>
<feOffset/>
<feGaussianBlur stdDeviation="12.4431"/>
<feComposite in2="hardAlpha" operator="out"/>
<feColorMatrix type="matrix" values="0 0 0 0 1 0 0 0 0 0.867647 0 0 0 0 0.25 0 0 0 0.25 0"/>
<feBlend mode="normal" in2="BackgroundImageFix" result="effect1_dropShadow_4534_25572"/>
<feBlend mode="normal" in="SourceGraphic" in2="effect1_dropShadow_4534_25572" result="shape"/>
<feColorMatrix in="SourceAlpha" type="matrix" values="0 0 0 0 0 0 0 0 0 0 0 0 0 0 0 0 0 0 127 0" result="hardAlpha"/>
<feOffset dy="-2"/>
<feGaussianBlur stdDeviation="1"/>
<feComposite in2="hardAlpha" operator="arithmetic" k2="-1" k3="1"/>
<feColorMatrix type="matrix" values="0 0 0 0 0 0 0 0 0 0 0 0 0 0 0 0 0 0 0.5 0"/>
<feBlend mode="normal" in2="shape" result="effect2_innerShadow_4534_25572"/>
<feColorMatrix in="SourceAlpha" type="matrix" values="0 0 0 0 0 0 0 0 0 0 0 0 0 0 0 0 0 0 127 0" result="hardAlpha"/>
<feOffset dy="2"/>
<feGaussianBlur stdDeviation="1"/>
<feComposite in2="hardAlpha" operator="arithmetic" k2="-1" k3="1"/>
<feColorMatrix type="matrix" values="0 0 0 0 1 0 0 0 0 1 0 0 0 0 1 0 0 0 0.4 0"/>
<feBlend mode="normal" in2="effect2_innerShadow_4534_25572" result="effect3_innerShadow_4534_25572"/>
</filter>
<linearGradient id="paint0_linear_4534_25572" x1="88" y1="21.3559" x2="88" y2="56.7244" gradientUnits="userSpaceOnUse">
<stop stop-color="#FFFAD0"/>
<stop offset="0.265625" stop-color="#FFE1A6"/>
<stop offset="1" stop-color="#BC824D"/>
</linearGradient>
</defs>
</svg>
