<svg width="220" height="89" viewBox="0 0 220 89" fill="none" xmlns="http://www.w3.org/2000/svg">
<g filter="url(#filter0_dii_3825_18123)">
<path d="M25.7509 54C25.9376 54 26.1109 53.8133 26.2709 53.44C26.4576 53.0667 26.5509 52.4533 26.5509 51.6V32.4C26.5509 31.5467 26.4576 30.9467 26.2709 30.6C26.0843 30.2267 25.8976 30.0267 25.7109 30H38.8309C41.0976 30 42.9243 30.3333 44.3109 31C45.7243 31.64 46.7643 32.5733 47.4309 33.8C48.0976 35 48.4309 36.44 48.4309 38.12C48.4309 39.8267 48.0976 41.3067 47.4309 42.56C46.7643 43.7867 45.7243 44.7333 44.3109 45.4C42.9243 46.04 41.0976 46.36 38.8309 46.36H32.7109V51.6C32.7109 52.4533 32.8043 53.0667 32.9909 53.44C33.1776 53.8133 33.3643 54 33.5509 54H25.7509ZM34.3509 41.96H36.3509C37.9243 41.96 39.1376 41.8267 39.9909 41.56C40.8709 41.2933 41.4843 40.88 41.8309 40.32C42.1776 39.76 42.3509 39.0267 42.3509 38.12C42.3509 37.24 42.1643 36.5333 41.7909 36C41.4443 35.4667 40.8576 35.0933 40.0309 34.88C39.2309 34.64 38.1376 34.52 36.7509 34.52H34.3509C33.5243 34.52 33.0443 34.5733 32.9109 34.68C32.7776 34.76 32.7109 35.0667 32.7109 35.6V40.84C32.7109 41.3733 32.7776 41.6933 32.9109 41.8C33.0443 41.9067 33.5243 41.96 34.3509 41.96ZM51.6038 54C51.7904 54 51.9638 53.8133 52.1238 53.44C52.3104 53.0667 52.4038 52.4533 52.4038 51.6V38.08C52.4038 37.2267 52.3104 36.6267 52.1238 36.28C51.9638 35.9067 51.7904 35.7067 51.6038 35.68C52.7771 35.68 53.9771 35.6 55.2038 35.44C56.4304 35.2533 57.3904 35.0667 58.0838 34.88V36.48L58.0038 37.16L58.0838 37.24C58.2704 36.9467 58.5638 36.6267 58.9638 36.28C59.3904 35.9067 59.9238 35.5867 60.5638 35.32C61.2304 35.0267 62.0038 34.88 62.8838 34.88C64.1904 34.88 65.3504 35.0667 66.3638 35.44C67.3771 35.7867 68.0971 36.1467 68.5238 36.52L67.3238 41.88V43.08C66.9238 42.52 66.3771 41.9467 65.6838 41.36C65.0171 40.7733 64.2704 40.28 63.4438 39.88C62.6438 39.48 61.8171 39.28 60.9638 39.28C60.0038 39.28 59.2838 39.6267 58.8038 40.32C58.3238 41.0133 58.0838 42.1067 58.0838 43.6V51.6C58.0838 52.4533 58.1638 53.0667 58.3238 53.44C58.5104 53.8133 58.6971 54 58.8838 54H51.6038ZM79.645 54.4C76.9783 54.4 74.885 53.9733 73.365 53.12C71.8717 52.2667 70.8183 51.1067 70.205 49.64C69.6183 48.1733 69.325 46.52 69.325 44.68C69.325 42.8133 69.6317 41.1467 70.245 39.68C70.885 38.2133 71.9517 37.0533 73.445 36.2C74.9383 35.32 77.005 34.88 79.645 34.88C82.285 34.88 84.3517 35.32 85.845 36.2C87.3383 37.0533 88.3917 38.2133 89.005 39.68C89.645 41.1467 89.965 42.8133 89.965 44.68C89.965 46.52 89.6583 48.1733 89.045 49.64C88.4583 51.1067 87.4183 52.2667 85.925 53.12C84.4317 53.9733 82.3383 54.4 79.645 54.4ZM79.645 50.36C80.765 50.36 81.6583 50.2 82.325 49.88C83.0183 49.5333 83.5117 48.9467 83.805 48.12C84.125 47.2933 84.285 46.1467 84.285 44.68C84.285 43.2133 84.125 42.0667 83.805 41.24C83.5117 40.3867 83.0183 39.7867 82.325 39.44C81.6583 39.0667 80.765 38.88 79.645 38.88C78.525 38.88 77.6183 39.0667 76.925 39.44C76.2583 39.8133 75.765 40.4267 75.445 41.28C75.1517 42.1333 75.005 43.28 75.005 44.72C75.005 46.1333 75.1517 47.2533 75.445 48.08C75.765 48.9067 76.2583 49.4933 76.925 49.84C77.6183 50.1867 78.525 50.36 79.645 50.36ZM93.1719 54C93.3585 54 93.5452 53.8133 93.7319 53.44C93.9185 53.0667 94.0119 52.4533 94.0119 51.6V28.8C94.0119 27.9467 93.9185 27.3333 93.7319 26.96C93.5719 26.5867 93.3985 26.4 93.2119 26.4C94.9719 26.4 96.3985 26.32 97.4919 26.16C98.6119 25.9733 99.3452 25.7867 99.6919 25.6V51.6C99.6919 52.4533 99.7719 53.0667 99.9319 53.44C100.119 53.8133 100.305 54 100.492 54H93.1719ZM114.02 54.4C111.353 54.4 109.26 53.9733 107.74 53.12C106.247 52.2667 105.193 51.1067 104.58 49.64C103.993 48.1733 103.7 46.52 103.7 44.68C103.7 42.8133 104.007 41.1467 104.62 39.68C105.26 38.2133 106.327 37.0533 107.82 36.2C109.313 35.32 111.38 34.88 114.02 34.88C116.66 34.88 118.727 35.32 120.22 36.2C121.713 37.0533 122.767 38.2133 123.38 39.68C124.02 41.1467 124.34 42.8133 124.34 44.68C124.34 46.52 124.033 48.1733 123.42 49.64C122.833 51.1067 121.793 52.2667 120.3 53.12C118.807 53.9733 116.713 54.4 114.02 54.4ZM114.02 50.36C115.14 50.36 116.033 50.2 116.7 49.88C117.393 49.5333 117.887 48.9467 118.18 48.12C118.5 47.2933 118.66 46.1467 118.66 44.68C118.66 43.2133 118.5 42.0667 118.18 41.24C117.887 40.3867 117.393 39.7867 116.7 39.44C116.033 39.0667 115.14 38.88 114.02 38.88C112.9 38.88 111.993 39.0667 111.3 39.44C110.633 39.8133 110.14 40.4267 109.82 41.28C109.527 42.1333 109.38 43.28 109.38 44.72C109.38 46.1333 109.527 47.2533 109.82 48.08C110.14 48.9067 110.633 49.4933 111.3 49.84C111.993 50.1867 112.9 50.36 114.02 50.36ZM136.947 63.76C135.4 63.76 133.974 63.6533 132.667 63.44C131.387 63.2267 130.267 62.96 129.307 62.64C128.374 62.3467 127.654 62.0533 127.147 61.76L127.947 55.76V54.6C128.32 55.32 128.907 56.08 129.707 56.88C130.507 57.68 131.507 58.36 132.707 58.92C133.907 59.48 135.267 59.76 136.787 59.76C137.774 59.76 138.6 59.5467 139.267 59.12C139.934 58.72 140.44 58.0933 140.787 57.24C141.134 56.3867 141.307 55.3333 141.307 54.08V53.44L141.387 52.72L141.307 52.64C140.934 53.04 140.427 53.3733 139.787 53.64C139.174 53.88 138.494 54.0667 137.747 54.2C137.027 54.3333 136.307 54.4 135.587 54.4C133.427 54.4 131.694 53.9733 130.387 53.12C129.107 52.2667 128.174 51.1067 127.587 49.64C127.027 48.1733 126.747 46.52 126.747 44.68C126.747 42.8133 127.027 41.1467 127.587 39.68C128.147 38.2133 129.067 37.0533 130.347 36.2C131.654 35.32 133.4 34.88 135.587 34.88C136.334 34.88 137.067 34.9333 137.787 35.04C138.507 35.1467 139.174 35.3067 139.787 35.52C140.4 35.7067 140.907 35.9733 141.307 36.32L141.387 36.28L141.307 35.52V35.28H147.787C147.6 35.3067 147.414 35.5067 147.227 35.88C147.067 36.2533 146.987 36.88 146.987 37.76V53.08C146.987 56.9467 146.16 59.6933 144.507 61.32C142.88 62.9467 140.36 63.76 136.947 63.76ZM136.667 50.36C137.6 50.36 138.414 50.2 139.107 49.88C139.8 49.56 140.334 48.9867 140.707 48.16C141.107 47.3333 141.307 46.1733 141.307 44.68C141.307 43.2133 141.107 42.0667 140.707 41.24C140.334 40.3867 139.8 39.7867 139.107 39.44C138.414 39.0667 137.6 38.88 136.667 38.88C135.787 38.88 135.027 39.0667 134.387 39.44C133.747 39.8133 133.254 40.4267 132.907 41.28C132.56 42.1333 132.387 43.28 132.387 44.72C132.387 46.1333 132.547 47.2533 132.867 48.08C133.214 48.9067 133.707 49.4933 134.347 49.84C134.987 50.1867 135.76 50.36 136.667 50.36ZM159.645 54.4C158.098 54.4 156.778 54.1333 155.685 53.6C154.591 53.04 153.765 52.0933 153.205 50.76C152.645 49.4 152.365 47.52 152.365 45.12V37.68C152.365 36.8267 152.271 36.2133 152.085 35.84C151.925 35.4667 151.751 35.28 151.565 35.28H158.925C158.738 35.28 158.538 35.4667 158.325 35.84C158.138 36.2133 158.045 36.8267 158.045 37.68V45.68C158.045 47.36 158.351 48.56 158.965 49.28C159.605 50 160.338 50.36 161.165 50.36C162.338 50.36 163.245 50.0933 163.885 49.56C164.525 49 164.978 48.28 165.245 47.4C165.511 46.4933 165.645 45.5467 165.645 44.56V37.68C165.645 36.8267 165.551 36.2267 165.365 35.88C165.205 35.5067 165.031 35.3067 164.845 35.28H171.325V51.6C171.325 52.4533 171.405 53.0667 171.565 53.44C171.751 53.8133 171.938 54 172.125 54H165.645V52.44L165.725 51.64L165.645 51.56C165.378 51.96 165.045 52.3333 164.645 52.68C164.245 53.0267 163.791 53.3333 163.285 53.6C162.778 53.84 162.218 54.0267 161.605 54.16C160.991 54.32 160.338 54.4 159.645 54.4ZM185.713 54.4C183.606 54.4 181.846 54.1867 180.433 53.76C179.046 53.3067 177.939 52.6667 177.113 51.84C176.286 50.9867 175.699 49.96 175.353 48.76C175.006 47.56 174.833 46.2 174.833 44.68C174.833 41.6667 175.673 39.28 177.353 37.52C179.033 35.76 181.606 34.88 185.073 34.88C187.099 34.88 188.739 35.16 189.993 35.72C191.273 36.28 192.246 37.0267 192.913 37.96C193.579 38.8933 194.033 39.9333 194.273 41.08C194.539 42.2 194.673 43.3333 194.673 44.48V46.36C194.673 46.28 194.299 46.2 193.553 46.12C192.833 46.0133 191.606 45.96 189.873 45.96H180.593C180.593 47.4267 181.033 48.5333 181.913 49.28C182.819 50 184.286 50.36 186.313 50.36C188.019 50.36 189.539 50.16 190.873 49.76C192.233 49.3333 193.219 48.9333 193.833 48.56V49.76L194.233 52.8C193.726 53.1467 192.753 53.5067 191.313 53.88C189.873 54.2267 188.006 54.4 185.713 54.4ZM182.073 42.52H188.993C188.993 41.9333 188.859 41.36 188.593 40.8C188.353 40.24 187.953 39.7867 187.393 39.44C186.833 39.0667 186.059 38.88 185.073 38.88C184.086 38.88 183.286 39.0267 182.673 39.32C182.086 39.6133 181.646 39.9733 181.353 40.4C181.086 40.8267 180.953 41.2667 180.953 41.72C180.953 41.9867 181.033 42.1867 181.193 42.32C181.353 42.4533 181.646 42.52 182.073 42.52Z" fill="url(#paint0_linear_3825_18123)"/>
</g>
<defs>
<filter id="filter0_dii_3825_18123" x="0.824654" y="0.713715" width="218.734" height="87.9326" filterUnits="userSpaceOnUse" color-interpolation-filters="sRGB">
<feFlood flood-opacity="0" result="BackgroundImageFix"/>
<feColorMatrix in="SourceAlpha" type="matrix" values="0 0 0 0 0 0 0 0 0 0 0 0 0 0 0 0 0 0 127 0" result="hardAlpha"/>
<feOffset/>
<feGaussianBlur stdDeviation="12.4431"/>
<feComposite in2="hardAlpha" operator="out"/>
<feColorMatrix type="matrix" values="0 0 0 0 1 0 0 0 0 0.867647 0 0 0 0 0.25 0 0 0 0.25 0"/>
<feBlend mode="normal" in2="BackgroundImageFix" result="effect1_dropShadow_3825_18123"/>
<feBlend mode="normal" in="SourceGraphic" in2="effect1_dropShadow_3825_18123" result="shape"/>
<feColorMatrix in="SourceAlpha" type="matrix" values="0 0 0 0 0 0 0 0 0 0 0 0 0 0 0 0 0 0 127 0" result="hardAlpha"/>
<feOffset dy="-2"/>
<feGaussianBlur stdDeviation="1"/>
<feComposite in2="hardAlpha" operator="arithmetic" k2="-1" k3="1"/>
<feColorMatrix type="matrix" values="0 0 0 0 0 0 0 0 0 0 0 0 0 0 0 0 0 0 0.5 0"/>
<feBlend mode="normal" in2="shape" result="effect2_innerShadow_3825_18123"/>
<feColorMatrix in="SourceAlpha" type="matrix" values="0 0 0 0 0 0 0 0 0 0 0 0 0 0 0 0 0 0 127 0" result="hardAlpha"/>
<feOffset dy="2"/>
<feGaussianBlur stdDeviation="1"/>
<feComposite in2="hardAlpha" operator="arithmetic" k2="-1" k3="1"/>
<feColorMatrix type="matrix" values="0 0 0 0 1 0 0 0 0 1 0 0 0 0 1 0 0 0 0.4 0"/>
<feBlend mode="normal" in2="effect2_innerShadow_3825_18123" result="effect3_innerShadow_3825_18123"/>
</filter>
<linearGradient id="paint0_linear_3825_18123" x1="110" y1="18.8079" x2="110" y2="65.9658" gradientUnits="userSpaceOnUse">
<stop stop-color="#FFFAD0"/>
<stop offset="0.265625" stop-color="#FFE1A6"/>
<stop offset="1" stop-color="#BC824D"/>
</linearGradient>
</defs>
</svg>
